<svg width="230" height="201" viewBox="0 0 230 201" fill="none" xmlns="http://www.w3.org/2000/svg">
<path d="M70.7677 110.312C69.5439 109.643 68.1454 109.559 66.8696 110.078C65.5937 110.597 64.5413 111.677 63.9363 113.09C63.8172 113.38 63.7188 113.68 63.642 113.989L45.5842 115.251L42.908 126.196L67.4851 121.338C68.603 121.611 69.7667 121.444 70.7947 120.862C71.8228 120.28 72.6572 119.316 73.1679 118.121C73.4529 117.438 73.62 116.696 73.6598 115.937C73.6996 115.178 73.6112 114.417 73.3998 113.699C73.1883 112.98 72.8579 112.317 72.4274 111.747C71.9968 111.178 71.4747 110.713 70.8906 110.379C70.8499 110.356 70.8089 110.334 70.7677 110.312Z" fill="#FFB6B6"/>
<path d="M30.9087 56.3247C29.7188 55.7551 28.438 55.4919 27.1534 55.5531C25.8688 55.6143 24.6105 55.9985 23.4641 56.6795C22.3177 57.3604 21.3102 58.3222 20.5099 59.4994C19.7096 60.6766 19.1355 62.0417 18.8264 63.5017L13.8618 86.9568L14.7957 127.99C14.7957 127.99 40.7094 133.808 45.0597 130.068C49.41 126.329 49.0015 123.545 49.41 126.329C49.8184 129.112 51.6856 130.281 51.7116 129.173C51.7375 128.066 51.9487 128.255 53.0328 127.921C54.1168 127.588 58.9015 125.525 58.9015 125.525L59.1158 113.826C59.1158 113.826 51.2058 110.318 49.2867 111.364C47.3677 112.411 49.6952 114.148 47.3677 112.411C45.0402 110.674 44.7858 105.192 44.3879 110.133C43.9899 115.073 42.8249 115.993 41.0799 113.796C39.3349 111.599 31.2502 113.003 31.2502 113.003L36.3948 67.3898C36.6535 65.0955 36.2556 62.7656 35.2631 60.7638C34.2707 58.762 32.7395 57.2011 30.9087 56.3247Z" fill="#6C63FF"/>
<path d="M205.422 178.009L205.695 169.369L177.337 164.028L176.935 176.78L205.422 178.009Z" fill="#FFB6B6"/>
<path d="M45.8237 197.823L135.642 185.604C135.642 185.604 174.429 188.225 183.529 181.299L193.125 179.882L193.646 163.391C193.646 163.391 187.777 163.441 184.403 161.602C181.029 159.763 183.374 157.513 180.158 159.726C176.941 161.938 177.28 162.204 174.793 161.187C172.306 160.17 58.2546 154.716 58.2546 154.716L45.8237 197.823Z" fill="#2F2E41"/>
<path d="M164.181 190.667L169.403 184.549L151.72 158.07L144.012 167.099L164.181 190.667Z" fill="#FFB6B6"/>
<path d="M159.036 190.264V188.25L159.805 186.237L160.574 185.029C161.086 184.76 162.188 184.143 162.496 183.821C162.803 183.499 163.137 182.881 163.265 182.613L164.418 181.002V179.391L165.571 178.183L165.956 175.364L167.109 177.78V179.391L168.262 181.002L169.031 182.613H171.722L173.26 181.807L175.951 181.002L178.642 179.794L180.948 179.391L181.717 178.586L183.639 177.78L185.561 176.572H187.099L187.868 177.78L188.637 179.794L187.868 181.807L187.099 183.418L186.33 185.029L185.561 186.237L184.793 187.042L183.639 188.25L182.486 189.056L180.948 190.264L180.179 191.472H178.642L176.72 192.277L175.951 194.291L175.182 195.901V196.707L174.413 197.915L173.26 199.123L171.722 199.928H169.8H168.262H167.109L165.956 199.123L164.418 197.915L163.265 196.707L162.112 195.096L161.343 194.291L160.574 193.485L159.805 192.277L159.036 190.264Z" fill="#450584" stroke="#450584"/>
<path d="M201.394 180.69L200.159 179.148L199.512 177.088L199.36 175.644C199.588 175.094 200.053 173.879 200.091 173.425C200.129 172.971 200.005 172.274 199.938 171.982L199.833 169.971L198.845 168.737L198.987 167.035L197.552 164.617L199.918 165.692L200.906 166.925L202.778 167.383L204.356 168.099L206.417 166.287L207.101 164.635L208.668 162.206L209.988 159.469L211.508 157.607L211.603 156.472L212.581 154.561L213.312 152.342L214.49 151.306L215.82 151.714L217.645 152.739L218.291 154.799L218.691 156.55L219.09 158.302L219.243 159.745L219.148 160.88L219.006 162.582L218.616 163.975L218.18 165.936L218.332 167.379L217.154 168.414L216.176 170.326L216.822 172.386L217.222 174.137L217.716 174.754L217.868 176.197L217.726 177.899L217.043 179.552L215.57 180.846L214.392 181.881L213.509 182.658L212.131 182.817L210.212 182.927L208.587 182.778L206.715 182.321L205.632 182.222L204.549 182.122L203.219 181.715L201.394 180.69Z" fill="#450584" stroke="#450584"/>
<path d="M10.3877 140.276L11.2806 164.558C12.3318 193.145 39.2415 210.446 60.1078 195.521C60.4924 195.246 60.8783 194.961 61.2654 194.666C61.2654 194.666 69.1759 192.18 68.9358 188.245C68.6957 184.309 70.6282 182.393 72.3384 183.467C74.0486 184.54 96.4404 147.363 96.4404 147.363C96.4404 147.363 142.963 174.512 153.226 180.903L164.056 177.451C164.056 177.451 168.131 179.703 166.663 176.446C165.195 173.189 164.932 174.749 164.481 171.2C164.03 167.652 162.876 163.252 162.176 163.437C161.477 163.622 104.622 117.069 104.622 117.069C104.622 117.069 95.3598 106.102 83.8702 113.343C83.6309 114.406 83.8355 114.443 83.8355 114.443L45.8813 150.624L40.5184 138.709L10.3877 140.276Z" fill="#2F2E41"/>
<path d="M35.8976 51.0523L19.6246 42.1299L14.7527 52.0473C14.7527 52.0473 1.66808 73.8916 1.47827 89.6505C1.28847 105.41 3.61063 110.096 3.61063 110.096C3.61063 110.096 -2.03097 115.03 0.789821 118.046C3.61062 121.062 9.8555 122.364 5.05913 123.671C0.262762 124.979 1.47827 138.217 6.83484 140.567C12.1914 142.917 40.959 142.896 40.959 142.896C40.7004 141.87 40.6813 140.781 40.9038 139.743C41.1263 138.705 41.5823 137.756 42.2243 136.994C44.4545 134.379 46.4632 136.255 44.4545 132.184C42.4457 128.112 39.0979 130.462 41.7762 124.979C44.4545 119.496 44.4535 117.857 44.4535 117.857C44.4535 117.857 49.9134 105.701 41.6894 92.513C41.1881 91.7091 41.6096 91.6781 41.6096 91.6781L34.9688 65.6438L35.8976 51.0523Z" fill="#450584"/>
<path d="M33.5814 40.3874C42.0867 40.3874 48.9815 32.3212 48.9815 22.3709C48.9815 12.4207 42.0867 4.35449 33.5814 4.35449C25.0761 4.35449 18.1813 12.4207 18.1813 22.3709C18.1813 32.3212 25.0761 40.3874 33.5814 40.3874Z" fill="#DEA95A"/>
<path d="M106.675 128.752C106.638 128.701 106.596 128.655 106.549 128.617C106.434 128.46 106.294 128.332 106.136 128.239L105.009 127.533L97.5281 117.816C97.095 117.552 96.5912 117.496 96.1232 117.659L96.104 117.666L92.8991 118.825L90.1429 119.826L86.2927 121.222L60.0682 130.722L42.8302 136.966C42.3642 137.138 41.9747 137.518 41.7456 138.023C41.5165 138.528 41.4661 139.118 41.6052 139.667C41.6863 139.968 41.8203 140.247 41.9988 140.485L42.5474 141.199L43.6979 142.699L46.3636 149.161L47.1032 150.127C47.3388 150.434 47.6445 150.657 47.9843 150.768C48.3242 150.88 48.6841 150.876 49.0221 150.757L105.811 132.282C106.106 132.171 106.374 131.976 106.589 131.715C106.804 131.454 106.962 131.135 107.047 130.786C107.132 130.438 107.143 130.07 107.078 129.715C107.013 129.36 106.875 129.029 106.675 128.752Z" fill="#CCCCCC"/>
<path d="M71.5233 121.749C70.2996 121.08 68.901 120.996 67.6252 121.515C66.3494 122.034 65.297 123.115 64.6919 124.528C64.5728 124.817 64.4744 125.118 64.3977 125.426L46.3399 126.689L43.6636 137.634L68.2407 132.775C69.3586 133.049 70.5224 132.881 71.5504 132.299C72.5784 131.717 73.4128 130.754 73.9235 129.559C74.499 128.179 74.5825 126.588 74.1554 125.136C73.7283 123.684 72.8258 122.49 71.6463 121.817C71.6055 121.794 71.5645 121.771 71.5233 121.749Z" fill="#FFB6B6"/>
<path d="M31.6644 67.7632C30.4744 67.1935 29.1936 66.9304 27.909 66.9916C26.6244 67.0528 25.3661 67.437 24.2197 68.118C23.0733 68.7989 22.0657 69.7607 21.2655 70.9379C20.4652 72.1151 19.8911 73.4801 19.582 74.9401L14.6174 98.3953L15.5513 139.429C15.5513 139.429 41.4651 145.246 45.8153 141.507C50.1656 137.767 49.7571 134.984 50.1656 137.767C50.5741 140.551 52.4413 141.719 52.4672 140.612C52.4931 139.504 52.7043 139.693 53.7884 139.36C54.8725 139.026 59.6571 136.963 59.6571 136.963L59.8714 125.264C59.8714 125.264 51.9614 121.756 50.0423 122.803C48.1233 123.849 50.4508 125.586 48.1233 123.849C45.7958 122.112 45.5414 116.63 45.1435 121.571C44.7455 126.512 43.5805 127.432 41.8355 125.235C40.0905 123.038 32.0058 124.441 32.0058 124.441L37.1504 78.8283C37.4092 76.534 37.0113 74.2041 36.0188 72.2023C35.0263 70.2005 33.4951 68.6395 31.6644 67.7632Z" fill="#450584"/>
<path d="M50.6282 15.4968L49.0905 19.9264C48.9624 20.0606 48.5523 20.4096 47.9373 20.7317C47.1684 21.1344 47.9373 21.9398 47.1684 22.3425C46.3996 22.7452 46.3996 22.3425 45.6307 22.7452C44.8619 23.1479 44.4774 22.7452 42.5553 22.7452C40.6332 22.7452 41.402 22.7452 39.0955 22.3425C38.3266 21.9398 38.3266 22.3425 37.5578 22.3425C36.7889 22.3425 36.7889 21.9398 35.2512 20.7317C34.9437 19.7653 34.8668 19.2552 34.8668 19.121C34.8668 19.9264 34.6362 18.3156 33.7135 18.3156H32.5603C32.1758 18.1814 31.1763 17.9935 30.2537 18.3156C29.3311 18.6378 29.8693 18.9868 30.2537 19.121L29.1005 20.3291L28.3316 21.9398C28.0753 22.3425 27.4859 23.309 27.1783 23.9533C26.8708 24.5976 26.5376 25.0271 26.4095 25.1613C25.8969 25.6982 24.6411 26.8526 23.7185 27.1748C22.5652 27.5775 22.5652 27.5775 21.7964 27.5775H19.8743C18.721 27.5775 18.721 27.1748 17.9521 26.3694C17.3371 25.7251 17.1833 24.4902 17.1833 23.9533L15.6456 22.3425L15.2612 19.9264L14.4923 19.121C14.6205 18.1814 14.9536 16.1411 15.2612 15.4968L16.4144 13.0807L17.1833 11.4699L18.721 8.65109L19.8743 7.04033L21.0275 5.42958L22.9497 4.6242L25.2562 3.01344L27.1783 2.20807L30.2537 1.40269C31.407 1.26846 33.9442 1 34.8668 1C35.7894 1 39.3518 1.80538 41.0176 2.20807L45.6307 4.6242C46.2458 4.94635 47.4247 5.29535 47.9373 5.42958L49.8594 7.84571L50.6282 9.85915L51.7815 11.4699V12.678L51.3971 14.2887L50.6282 15.4968Z" fill="#2F2E41" stroke="#2F2E41"/>
</svg>
