<svg width="30" height="30" viewBox="0 0 30 30" fill="none" xmlns="http://www.w3.org/2000/svg">
<path d="M25.7 4.17495C25.5189 4.04966 25.3079 3.97442 25.0884 3.95686C24.8689 3.9393 24.6487 3.98004 24.45 4.07495L3.19999 14.075C2.9834 14.1781 2.80106 14.3413 2.67472 14.5452C2.54838 14.7491 2.48339 14.9851 2.48749 15.2249C2.49146 15.4646 2.56428 15.6981 2.69725 15.8976C2.83023 16.0971 3.01776 16.2541 3.23749 16.3499L9.99999 19.3124V27.7125L17.3 22.5L23.25 25.1C23.4062 25.1742 23.577 25.2126 23.75 25.2125C23.9798 25.2109 24.2047 25.146 24.4 25.025C24.5721 24.9208 24.7165 24.7766 24.8209 24.6047C24.9254 24.4328 24.9868 24.2382 25 24.0375L26.25 5.28745C26.2631 5.07018 26.2193 4.85325 26.1228 4.65812C26.0263 4.463 25.8806 4.29645 25.7 4.17495ZM22.625 22.1L16.0375 19.2125L20 11.4625L10.4375 16.775L6.77499 15.1624L23.6125 7.23745L22.625 22.1Z" fill="#CD3DF1"/>
</svg>
