<svg width="30" height="30" viewBox="0 0 30 30" fill="none" xmlns="http://www.w3.org/2000/svg">
<path d="M18.3539 18.5349C17.897 18.9903 17.3573 19.3544 16.7639 19.6074C15.6955 20.0585 14.5036 20.1243 13.3921 19.7937C12.2805 19.4631 11.3184 18.7565 10.6702 17.7949L8.59766 19.1937C9.1382 19.9913 9.8259 20.6786 10.6239 21.2187C11.436 21.7678 12.3484 22.1514 13.3089 22.3474C14.7952 22.65 16.3381 22.4975 17.7364 21.9099C18.6263 21.5323 19.4355 20.9874 20.1202 20.3049C20.4602 19.9662 20.7702 19.5912 21.0377 19.1937L18.9652 17.7949C18.7847 18.06 18.5801 18.3077 18.3539 18.5349Z" fill="#CD3DF1"/>
<path d="M15 2.5C8.1075 2.5 2.5 8.1075 2.5 15C2.5 21.8925 8.1075 27.5 15 27.5C21.8925 27.5 27.5 21.8925 27.5 15C27.5 8.1075 21.8925 2.5 15 2.5ZM15 5C18.6912 5 21.9137 7.01625 23.6475 10H6.3525C8.08625 7.01625 11.3088 5 15 5ZM15 25C9.48625 25 5 20.5138 5 15C5 14.1362 5.1225 13.3012 5.33 12.5H6.25V13.75C6.25 14.413 6.51339 15.0489 6.98223 15.5178C7.45107 15.9866 8.08696 16.25 8.75 16.25H11.25C11.913 16.25 12.5489 15.9866 13.0178 15.5178C13.4866 15.0489 13.75 14.413 13.75 13.75H16.25C16.25 14.413 16.5134 15.0489 16.9822 15.5178C17.4511 15.9866 18.087 16.25 18.75 16.25H21.25C21.913 16.25 22.5489 15.9866 23.0178 15.5178C23.4866 15.0489 23.75 14.413 23.75 13.75V12.5H24.67C24.8775 13.3012 25 14.1362 25 15C25 20.5138 20.5138 25 15 25Z" fill="#CD3DF1"/>
</svg>
