<svg width="30" height="30" viewBox="0 0 30 30" fill="none" xmlns="http://www.w3.org/2000/svg">
<g clip-path="url(#clip0_189_296)">
<path d="M13.75 25.8875L12.5 28.5H17.5L16.25 25.8875C21.25 25.075 25 19.2875 25 13.5C25 10.8478 23.9464 8.3043 22.0711 6.42893C20.1957 4.55357 17.6522 3.5 15 3.5C12.3478 3.5 9.8043 4.55357 7.92893 6.42893C6.05357 8.3043 5 10.8478 5 13.5C5 19.2875 8.85 25.075 13.75 25.8875ZM15 6.3125V8.1875C13.5921 8.1908 12.2427 8.75157 11.2471 9.74714C10.2516 10.7427 9.6908 12.0921 9.6875 13.5H7.8125C7.8158 11.5948 8.57412 9.76852 9.92132 8.42132C11.2685 7.07412 13.0948 6.3158 15 6.3125Z" fill="#CD3DF1"/>
</g>
<defs>
<clipPath id="clip0_189_296">
<rect width="30" height="30" fill="white"/>
</clipPath>
</defs>
</svg>
