<svg width="625" height="580" viewBox="0 0 625 580" fill="none" xmlns="http://www.w3.org/2000/svg">
<g clip-path="url(#clip0_166_228)">
<path d="M411.162 0H229.547C201.301 0 178.402 25.5736 178.402 57.1202V520.614C178.402 552.161 201.301 577.735 229.547 577.735H411.162C439.409 577.735 462.307 552.161 462.307 520.614V57.1202C462.307 25.5736 439.409 0 411.162 0Z" fill="black"/>
<path d="M457.518 57.124V520.615C457.503 534.341 452.615 547.5 443.924 557.206C435.234 566.912 423.451 572.371 411.161 572.387H229.549C217.259 572.371 205.476 566.912 196.786 557.206C188.095 547.5 183.207 534.341 183.192 520.615V57.124C183.207 43.398 188.095 30.2387 196.786 20.5329C205.476 10.8271 217.259 5.36745 229.549 5.35156H253.298V14.5136C253.298 18.6615 254.773 22.6393 257.399 25.5723C260.026 28.5052 263.587 30.1531 267.301 30.1533H373.409C377.123 30.1531 380.684 28.5052 383.31 25.5723C385.937 22.6393 387.412 18.6615 387.412 14.5136V5.35156H411.161C423.451 5.36746 435.234 10.8271 443.924 20.5329C452.615 30.2387 457.503 43.398 457.518 57.124Z" fill="white"/>
<path d="M461.483 212C460.56 211.999 459.675 211.577 459.021 210.828C458.368 210.079 458.001 209.063 458 208.003V185.997C458 184.937 458.367 183.92 459.02 183.171C459.674 182.421 460.56 182 461.483 182C462.407 182 463.293 182.421 463.947 183.171C464.6 183.92 464.967 184.937 464.967 185.997V208.003C464.966 209.063 464.599 210.079 463.946 210.828C463.292 211.577 462.407 211.999 461.483 212Z" fill="black"/>
<path d="M462.483 163C461.56 162.999 460.675 162.555 460.021 161.765C459.368 160.975 459.001 159.905 459 158.788V102.212C459 101.095 459.367 100.023 460.02 99.2336C460.674 98.4437 461.56 98 462.483 98C463.407 98 464.293 98.4437 464.947 99.2336C465.6 100.023 465.967 101.095 465.967 102.212V158.788C465.966 159.905 465.599 160.975 464.946 161.765C464.292 162.555 463.407 162.999 462.483 163Z" fill="black"/>
<path d="M327.838 17.8436H300.841C300.264 17.8436 299.71 17.5874 299.302 17.1314C298.893 16.6754 298.664 16.0569 298.664 15.412C298.664 14.7671 298.893 14.1487 299.302 13.6927C299.71 13.2367 300.264 12.9805 300.841 12.9805H327.838C328.416 12.9805 328.97 13.2367 329.378 13.6927C329.786 14.1487 330.016 14.7671 330.016 15.412C330.016 16.0569 329.786 16.6754 329.378 17.1314C328.97 17.5874 328.416 17.8436 327.838 17.8436Z" fill="white"/>
<path d="M341.772 17.357C342.734 17.357 343.514 16.4861 343.514 15.4118C343.514 14.3375 342.734 13.4666 341.772 13.4666C340.81 13.4666 340.03 14.3375 340.03 15.4118C340.03 16.4861 340.81 17.357 341.772 17.357Z" fill="white"/>
<path d="M550.328 559.77C550.816 559.79 551.297 559.643 551.707 559.348C552.117 559.054 552.436 558.627 552.619 558.125C552.803 557.623 552.844 557.071 552.736 556.542C552.627 556.014 552.375 555.535 552.014 555.171C551.952 554.907 551.907 554.717 551.845 554.453C552.3 553.132 553.1 551.991 554.142 551.179C555.185 550.366 556.422 549.917 557.696 549.891C558.969 549.864 560.221 550.26 561.29 551.028C562.359 551.797 563.198 552.902 563.698 554.203C566.581 561.505 570.297 569.057 568.551 577.152C580.301 548.8 575.921 513.734 557.992 489.784C553.068 486.839 549.052 481.557 547.965 475.385C550.397 476.272 553.401 474.05 551.554 471.233C550.754 470.157 549.947 469.091 549.148 468.015C558.264 457.025 569.384 474.028 559.373 488.836C562.729 493.418 565.644 498.378 568.071 503.633C567.473 498.032 568.081 492.353 569.844 487.063C571.636 482.132 575.037 477.959 578.026 473.68C581.661 468.468 589.255 470.774 589.806 477.335C586.421 478.61 586.027 484.062 589.917 484.767C589.005 496.992 581.916 508.293 572.065 513.754C575.817 525.104 577.348 537.211 576.556 549.269C578.182 535.169 591.763 531.608 601.229 525.911C601.831 525.473 602.534 525.24 603.253 525.239C603.973 525.237 604.677 525.469 605.28 525.904C605.883 526.34 606.358 526.961 606.649 527.692C606.94 528.422 607.032 529.231 606.916 530.02C605.608 530.626 604.358 531.376 603.183 532.257C602.633 532.677 602.213 533.275 601.981 533.97C601.749 534.665 601.716 535.422 601.886 536.139C602.057 536.855 602.423 537.496 602.934 537.972C603.446 538.448 604.077 538.738 604.742 538.8C600.06 552.031 587.738 561.012 575.005 561.097C573.832 567.015 572.108 572.782 569.861 578.304L550.963 578.504C550.893 578.272 550.83 578.032 550.767 577.799C552.517 577.903 554.272 577.768 555.993 577.398C551.313 571.361 547.707 568.294 550.328 559.77L550.328 559.77Z" fill="white"/>
<path d="M56.6365 559.266C56.1488 559.286 55.6674 559.138 55.2576 558.844C54.8478 558.55 54.5293 558.123 54.3454 557.621C54.1614 557.119 54.1208 556.566 54.2291 556.038C54.3374 555.509 54.5894 555.031 54.9509 554.667C55.0132 554.402 55.0579 554.213 55.1201 553.948C54.6649 552.627 53.8648 551.487 52.8224 550.675C51.78 549.862 50.5428 549.413 49.2693 549.386C47.9959 549.36 46.7442 549.756 45.6748 550.524C44.6054 551.292 43.767 552.398 43.267 553.699C40.3835 561.001 36.6679 568.553 38.4141 576.648C26.6642 548.296 31.0434 513.23 48.9728 489.28C53.8972 486.335 57.9133 481.052 59 474.881C56.5677 475.768 53.5638 473.546 55.411 470.729C56.2104 469.653 57.0174 468.586 57.8168 467.511C48.7007 456.521 37.581 473.524 47.5919 488.332C44.2362 492.914 41.3211 497.873 38.894 503.129C39.4921 497.527 38.8843 491.848 37.1204 486.559C35.3292 481.628 31.9282 477.455 28.9384 473.176C25.3034 467.963 17.7101 470.27 17.1587 476.831C20.5437 478.106 20.9381 483.558 17.0475 484.263C17.9601 496.488 25.0493 507.789 34.8999 513.25C31.1476 524.6 29.6166 536.707 30.4088 548.765C28.7827 534.665 15.2013 531.104 5.73608 525.407C5.13429 524.969 4.43083 524.736 3.71151 524.734C2.99218 524.733 2.28808 524.965 1.68511 525.4C1.08214 525.836 0.606352 526.457 0.315791 527.188C0.0252307 527.918 -0.0675457 528.727 0.0487834 529.516C1.35672 530.122 2.60714 530.872 3.78164 531.753C4.33192 532.173 4.75194 532.771 4.98412 533.466C5.2163 534.161 5.24928 534.918 5.07852 535.635C4.90777 536.351 4.54165 536.992 4.03035 537.468C3.51905 537.944 2.8876 538.233 2.22255 538.296C6.90482 551.526 19.2267 560.508 31.9603 560.593C33.1333 566.511 34.857 572.278 37.1035 577.8L56.0022 578C56.072 577.768 56.135 577.527 56.198 577.295C54.4477 577.398 52.6925 577.264 50.9716 576.894C55.6519 570.857 59.2578 567.79 56.6371 559.266L56.6365 559.266Z" fill="white"/>
<path d="M242.922 28.277H219.408C218.253 28.277 217.146 27.7646 216.329 26.8526C215.512 25.9406 215.054 24.7036 215.054 23.4139C215.054 22.1241 215.512 20.8871 216.329 19.9751C217.146 19.0631 218.253 18.5508 219.408 18.5508H242.922C244.077 18.5508 245.184 19.0631 246.001 19.9751C246.817 20.8871 247.276 22.1241 247.276 23.4139C247.276 24.7036 246.817 25.9406 246.001 26.8526C245.184 27.7646 244.077 28.277 242.922 28.277Z" fill="#E6E6E6"/>
<path d="M397.066 27.7907C399.231 27.7907 400.985 25.8311 400.985 23.4139C400.985 20.9967 399.231 19.0371 397.066 19.0371C394.902 19.0371 393.147 20.9967 393.147 23.4139C393.147 25.8311 394.902 27.7907 397.066 27.7907Z" fill="#E6E6E6"/>
<path d="M409.259 27.7907C411.423 27.7907 413.178 25.8311 413.178 23.4139C413.178 20.9967 411.423 19.0371 409.259 19.0371C407.094 19.0371 405.34 20.9967 405.34 23.4139C405.34 25.8311 407.094 27.7907 409.259 27.7907Z" fill="#E6E6E6"/>
<path d="M421.451 27.7907C423.616 27.7907 425.37 25.8311 425.37 23.4139C425.37 20.9967 423.616 19.0371 421.451 19.0371C419.287 19.0371 417.532 20.9967 417.532 23.4139C417.532 25.8311 419.287 27.7907 421.451 27.7907Z" fill="#E6E6E6"/>
<path d="M394.326 96.2473H246.539C243.676 96.2517 240.932 97.5238 238.907 99.7846C236.883 102.045 235.744 105.11 235.74 108.308V215.597C235.744 218.794 236.883 221.86 238.907 224.12C240.932 226.381 243.676 227.653 246.539 227.658H394.326C397.19 227.655 399.935 226.383 401.96 224.122C403.984 221.861 405.123 218.795 405.125 215.597V108.308C405.123 105.11 403.984 102.044 401.96 99.7828C399.935 97.5216 397.19 96.2501 394.326 96.2473Z" fill="#F2F2F2"/>
<path d="M348.059 142.05C334.704 168.422 319.966 193.89 303.922 218.322H280.746C295.926 197.668 311.118 177.014 326.32 156.36C330.682 150.413 335.415 144.183 341.957 141.767L348.059 142.05Z" fill="#3F3D56"/>
<path d="M317.26 137.821C314.842 140.634 312.526 143.56 310.346 146.6C305.545 153.056 300.812 159.57 296.062 166.064C293.103 170.104 290.145 174.145 287.221 178.185C286.292 177.519 285.41 176.774 284.584 175.957C279.913 171.429 277.015 165.038 276.513 158.153C276.01 151.269 277.942 144.438 281.895 139.125C285.847 133.812 291.506 130.439 297.658 129.729C303.811 129.02 309.967 131.03 314.809 135.329C315.681 136.089 316.501 136.922 317.26 137.821Z" fill="white"/>
<path d="M405.126 134.753V138.673L403.558 138.031L381.499 129.025C374.314 126.097 367.147 122.751 359.727 120.641C353.272 118.578 346.416 118.676 340.01 120.923C334.3 123.282 329.075 126.904 324.648 131.573C322.689 133.596 320.79 135.668 318.953 137.817C318.352 138.527 317.751 139.237 317.159 139.947C315.382 142.106 313.666 144.314 312.038 146.6C307.239 153.058 302.502 159.575 297.756 166.062C294.795 170.108 291.834 174.144 288.908 178.181C279.136 191.535 269.423 204.915 259.768 218.321C258.468 218.304 257.173 218.122 255.91 217.776C265.76 204.111 275.656 190.481 285.598 176.887C285.825 176.576 286.051 176.265 286.278 175.953C287.444 174.329 288.638 172.695 289.822 171.071C294.777 164.292 299.735 157.519 304.696 150.753C308.302 145.831 311.881 140.891 315.765 136.222C316 135.92 316.244 135.629 316.497 135.327C316.871 134.88 317.246 134.442 317.629 133.985C326.068 124.249 336.597 115.641 349.207 115.408C356.627 115.282 363.794 117.908 370.691 120.68C378.12 123.685 385.522 126.739 392.942 129.774L405.126 134.753Z" fill="#3F3D56"/>
<path d="M408.601 464.54H232.111C229.248 464.536 226.503 463.264 224.479 461.003C222.454 458.743 221.316 455.677 221.312 452.48V425.915C221.316 422.718 222.454 419.653 224.479 417.392C226.503 415.131 229.248 413.859 232.111 413.855H408.601C411.464 413.859 414.208 415.131 416.233 417.392C418.257 419.653 419.396 422.718 419.399 425.915V452.48C419.396 455.677 418.257 458.743 416.233 461.003C414.208 463.264 411.464 464.536 408.601 464.54Z" fill="#F2F2F2"/>
<path d="M408.601 328.373H232.111C229.248 328.369 226.503 327.098 224.479 324.837C222.454 322.576 221.316 319.511 221.312 316.313V289.749C221.316 286.551 222.454 283.486 224.479 281.225C226.503 278.964 229.248 277.693 232.111 277.689H408.601C411.464 277.693 414.208 278.964 416.233 281.225C418.257 283.486 419.396 286.551 419.399 289.749V316.313C419.396 319.511 418.257 322.576 416.233 324.837C414.208 327.098 411.464 328.369 408.601 328.373Z" fill="#F2F2F2"/>
<path d="M408.601 396.457H232.111C229.248 396.453 226.503 395.181 224.479 392.92C222.454 390.66 221.316 387.594 221.312 384.397V357.832C221.316 354.635 222.454 351.57 224.479 349.309C226.503 347.048 229.248 345.776 232.111 345.772H408.601C411.464 345.776 414.208 347.048 416.233 349.309C418.257 351.57 419.396 354.635 419.399 357.832V384.397C419.396 387.594 418.257 390.66 416.233 392.92C414.208 395.181 411.464 396.453 408.601 396.457Z" fill="#F2F2F2"/>
<path d="M341.797 434.651H289.796C289.179 434.651 288.587 434.377 288.151 433.89C287.715 433.403 287.47 432.742 287.47 432.053C287.47 431.364 287.715 430.703 288.151 430.216C288.587 429.729 289.179 429.455 289.796 429.455H341.797C342.414 429.455 343.006 429.729 343.442 430.216C343.878 430.703 344.124 431.364 344.124 432.053C344.124 432.742 343.878 433.403 343.442 433.89C343.006 434.377 342.414 434.651 341.797 434.651Z" fill="white"/>
<path d="M391.812 448.94H289.215C288.598 448.94 288.006 448.666 287.57 448.179C287.134 447.692 286.889 447.031 286.889 446.342C286.889 445.653 287.134 444.992 287.57 444.505C288.006 444.018 288.598 443.744 289.215 443.744H391.812C392.429 443.744 393.021 444.018 393.457 444.505C393.893 444.992 394.138 445.653 394.138 446.342C394.138 447.031 393.893 447.692 393.457 448.179C393.021 448.666 392.429 448.94 391.812 448.94Z" fill="white"/>
<path d="M262.17 456.617C270.784 456.617 277.767 448.818 277.767 439.198C277.767 429.577 270.784 421.779 262.17 421.779C253.556 421.779 246.573 429.577 246.573 439.198C246.573 448.818 253.556 456.617 262.17 456.617Z" fill="white"/>
<path d="M258.695 462.727C257.103 461.896 255.284 461.792 253.625 462.436C251.965 463.08 250.596 464.422 249.809 466.177C249.654 466.536 249.526 466.909 249.427 467.292L225.94 468.86L222.459 482.449L254.425 476.417C255.879 476.757 257.393 476.549 258.73 475.826C260.067 475.104 261.152 473.907 261.816 472.423C262.187 471.575 262.404 470.653 262.456 469.711C262.508 468.769 262.393 467.825 262.118 466.932C261.843 466.039 261.413 465.216 260.853 464.509C260.293 463.802 259.614 463.225 258.854 462.811C258.802 462.782 258.748 462.754 258.695 462.727Z" fill="#FFB6B6"/>
<path d="M206.852 395.694C205.304 394.987 203.638 394.66 201.967 394.736C200.296 394.812 198.66 395.289 197.169 396.135C195.678 396.98 194.367 398.174 193.326 399.636C192.286 401.098 191.539 402.793 191.137 404.605L184.68 433.729L185.894 484.678C185.894 484.678 219.599 491.901 225.257 487.258C230.915 482.615 230.384 479.159 230.915 482.615C231.446 486.071 233.875 487.522 233.909 486.147C233.942 484.772 234.217 485.007 235.627 484.593C237.037 484.178 243.26 481.617 243.26 481.617L243.539 467.091C243.539 467.091 233.251 462.735 230.755 464.034C228.259 465.334 231.286 467.49 228.259 465.334C225.232 463.177 224.901 456.37 224.383 462.505C223.866 468.639 222.35 469.782 220.081 467.054C217.811 464.326 207.296 466.069 207.296 466.069L213.987 409.433C214.324 406.584 213.806 403.692 212.515 401.206C211.224 398.72 209.233 396.782 206.852 395.694Z" fill="#FFB6B6"/>
<path d="M433.832 546.784L434.186 536.056L397.303 529.424L396.78 545.257L433.832 546.784Z" fill="#FFB6B6"/>
<path d="M226.251 571.386L343.073 556.214C343.073 556.214 393.52 559.468 405.356 550.869L417.838 549.109L418.515 528.633C418.515 528.633 410.882 528.696 406.494 526.412C402.106 524.129 405.155 521.335 400.971 524.082C396.788 526.829 397.229 527.16 393.995 525.897C390.76 524.635 242.419 517.862 242.419 517.862L226.251 571.386Z" fill="#2F2E41"/>
<path d="M380.191 562.5L386.984 554.904L363.984 522.027L353.959 533.237L380.191 562.5Z" fill="#FFB6B6"/>
<path d="M373.5 562V559.5L374.5 557L375.5 555.5C376.167 555.167 377.6 554.4 378 554C378.4 553.6 378.833 552.833 379 552.5L380.5 550.5V548.5L382 547L382.5 543.5L384 546.5V548.5L385.5 550.5L386.5 552.5H390L392 551.5L395.5 550.5L399 549L402 548.5L403 547.5L405.5 546.5L408 545H410L411 546.5L412 549L411 551.5L410 553.5L409 555.5L408 557L407 558L405.5 559.5L404 560.5L402 562L401 563.5H399L396.5 564.5L395.5 567L394.5 569V570L393.5 571.5L392 573L390 574H387.5H385.5H384L382.5 573L380.5 571.5L379 570L377.5 568L376.5 567L375.5 566L374.5 564.5L373.5 562Z" fill="#450584" stroke="#450584"/>
<path d="M428.593 550.113L426.986 548.198L426.145 545.64L425.947 543.849C426.243 543.165 426.848 541.656 426.898 541.093C426.947 540.529 426.786 539.663 426.7 539.301L426.563 536.804L425.277 535.272L425.462 533.159L423.596 530.157L426.673 531.491L427.959 533.023L430.393 533.591L432.445 534.48L435.126 532.23L436.015 530.178L438.054 527.163L439.771 523.764L441.747 521.452L441.871 520.044L443.143 517.671L444.094 514.915L445.626 513.629L447.356 514.135L449.729 515.408L450.57 517.965L451.09 520.14L451.609 522.315L451.807 524.107L451.684 525.516L451.499 527.629L450.993 529.359L450.425 531.794L450.623 533.586L449.091 534.871L447.819 537.244L448.66 539.802L449.179 541.977L449.822 542.743L450.02 544.535L449.835 546.648L448.946 548.7L447.031 550.307L445.499 551.593L444.35 552.557L442.558 552.755L440.062 552.891L437.948 552.706L435.514 552.139L434.105 552.015L432.696 551.892L430.966 551.386L428.593 550.113Z" fill="#450584" stroke="#450584"/>
<path d="M180.161 499.932L181.323 530.083C182.69 565.577 217.69 587.06 244.829 568.527C245.33 568.186 245.831 567.832 246.335 567.466C246.335 567.466 256.624 564.38 256.311 559.493C255.999 554.606 258.513 552.228 260.737 553.56C262.961 554.893 292.085 508.732 292.085 508.732C292.085 508.732 352.595 542.442 365.944 550.377L380.029 546.091C380.029 546.091 385.33 548.887 383.42 544.843C381.511 540.799 381.168 542.736 380.582 538.33C379.995 533.924 378.494 528.461 377.584 528.691C376.674 528.921 302.727 471.117 302.727 471.117C302.727 471.117 290.68 457.5 275.736 466.491C275.424 467.811 275.691 467.858 275.691 467.858L226.326 512.781L219.35 497.987L180.161 499.932Z" fill="#2F2E41"/>
<path d="M213.34 389.148L192.175 378.07L185.838 390.384C185.838 390.384 168.82 417.507 168.573 437.074C168.326 456.641 171.347 462.46 171.347 462.46C171.347 462.46 164.009 468.586 167.678 472.331C171.347 476.076 179.469 477.692 173.231 479.316C166.992 480.939 168.573 497.376 175.54 500.294C182.507 503.212 219.923 503.186 219.923 503.186C219.587 501.912 219.562 500.56 219.852 499.272C220.141 497.983 220.734 496.804 221.569 495.858C224.47 492.611 227.082 494.941 224.47 489.885C221.857 484.83 217.503 487.748 220.986 480.94C224.47 474.131 224.469 472.097 224.469 472.097C224.469 472.097 231.57 457.003 220.874 440.628C220.222 439.63 220.77 439.591 220.77 439.591L212.132 407.266L213.34 389.148Z" fill="#450584"/>
<path d="M210.328 375.905C221.39 375.905 230.358 365.89 230.358 353.535C230.358 341.181 221.39 331.165 210.328 331.165C199.266 331.165 190.298 341.181 190.298 353.535C190.298 365.89 199.266 375.905 210.328 375.905Z" fill="#FFB6B6"/>
<path d="M305.397 485.624C305.349 485.56 305.294 485.503 305.233 485.455C305.083 485.261 304.901 485.102 304.696 484.986L303.231 484.11L293.5 472.045C292.937 471.717 292.282 471.647 291.673 471.85L291.648 471.858L287.48 473.298L283.895 474.54L278.887 476.274L244.778 488.07L222.358 495.822C221.752 496.036 221.245 496.508 220.947 497.135C220.649 497.762 220.583 498.495 220.764 499.176C220.87 499.551 221.044 499.897 221.276 500.192L221.99 501.078L223.486 502.94L226.953 510.965L227.915 512.164C228.222 512.546 228.619 512.822 229.061 512.96C229.503 513.099 229.972 513.094 230.411 512.946L304.274 490.007C304.658 489.868 305.005 489.626 305.285 489.302C305.565 488.978 305.77 488.582 305.881 488.149C305.992 487.716 306.006 487.259 305.921 486.819C305.837 486.379 305.657 485.968 305.397 485.624Z" fill="#CCCCCC"/>
<path d="M301.012 366.278L299.582 366.537C299.19 366.61 298.839 366.852 298.607 367.213L297.976 368.197L292.292 384.072C292.061 384.435 291.968 384.885 292.034 385.325L292.7 389.848L290.183 470.58C290.246 470.998 290.447 471.374 290.746 471.635L301.782 488.123L302.04 488.351L302.596 488.838C302.881 489.083 303.234 489.209 303.594 489.192L304.532 489.142C304.745 489.131 304.954 489.069 305.144 488.961C305.334 488.852 305.501 488.7 305.634 488.515C305.769 488.331 305.867 488.116 305.921 487.887C305.975 487.657 305.984 487.416 305.947 487.182L302.746 367.659C302.681 367.22 302.463 366.828 302.139 366.569C301.815 366.309 301.412 366.204 301.019 366.277L301.012 366.278Z" fill="#CCCCCC"/>
<path d="M298.616 372.551L293.581 389.682L291.633 458.109L299.471 465.89L298.616 372.551Z" fill="#6C63FF"/>
<path d="M259.677 476.929C258.085 476.099 256.266 475.994 254.607 476.639C252.948 477.283 251.579 478.625 250.792 480.379C250.637 480.739 250.509 481.112 250.409 481.495L226.922 483.062L223.441 496.652L255.408 490.62C256.861 490.959 258.375 490.751 259.712 490.029C261.049 489.306 262.135 488.11 262.799 486.626C263.547 484.913 263.656 482.937 263.1 481.135C262.545 479.332 261.371 477.849 259.837 477.013C259.784 476.985 259.731 476.957 259.677 476.929Z" fill="#FFB6B6"/>
<path d="M207.835 409.897C206.287 409.189 204.622 408.863 202.951 408.939C201.28 409.015 199.643 409.492 198.152 410.337C196.661 411.183 195.351 412.377 194.31 413.839C193.269 415.3 192.522 416.995 192.12 418.808L185.663 447.931L186.878 498.881C186.878 498.881 220.582 506.104 226.24 501.461C231.899 496.818 231.367 493.362 231.899 496.818C232.43 500.274 234.858 501.724 234.892 500.349C234.926 498.974 235.201 499.209 236.611 498.795C238.021 498.381 244.244 495.819 244.244 495.819L244.522 481.293C244.522 481.293 234.234 476.937 231.738 478.237C229.242 479.536 232.27 481.693 229.242 479.536C226.215 477.38 225.884 470.573 225.367 476.708C224.849 482.842 223.334 483.984 221.064 481.256C218.794 478.529 208.279 480.271 208.279 480.271L214.971 423.636C215.307 420.787 214.789 417.894 213.499 415.409C212.208 412.923 210.216 410.985 207.835 409.897Z" fill="#450584"/>
<path d="M4.5869e-06 578.842C-0.000401301 578.995 0.0261339 579.145 0.0780744 579.286C0.130015 579.427 0.206343 579.554 0.302663 579.662C0.398982 579.77 0.513389 579.855 0.639313 579.913C0.765237 579.971 0.900187 580 1.0364 580H623.964C624.239 580 624.502 579.878 624.696 579.661C624.891 579.444 625 579.149 625 578.842C625 578.536 624.891 578.241 624.696 578.024C624.502 577.807 624.239 577.685 623.964 577.685H1.03635C0.90014 577.685 0.765202 577.714 0.639287 577.772C0.513371 577.83 0.398963 577.916 0.30265 578.023C0.206337 578.131 0.130013 578.258 0.0780744 578.399C0.0261356 578.54 -0.000396644 578.69 4.5869e-06 578.842Z" fill="#CCCCCC"/>
<path d="M549.682 328.373H373.192C370.329 328.369 367.584 327.098 365.56 324.837C363.535 322.576 362.397 319.511 362.394 316.313V289.749C362.397 286.551 363.535 283.486 365.56 281.225C367.584 278.964 370.329 277.693 373.192 277.689H549.682C552.545 277.693 555.289 278.964 557.314 281.225C559.338 283.486 560.477 286.551 560.48 289.749V316.313C560.477 319.511 559.338 322.576 557.314 324.837C555.289 327.098 552.545 328.369 549.682 328.373Z" fill="#E6E6E6"/>
<path d="M482.879 298.485H430.878C430.261 298.485 429.669 298.211 429.233 297.724C428.797 297.236 428.552 296.576 428.552 295.887C428.552 295.198 428.797 294.537 429.233 294.049C429.669 293.562 430.261 293.289 430.878 293.289H482.879C483.496 293.289 484.088 293.562 484.524 294.049C484.96 294.537 485.206 295.198 485.206 295.887C485.206 296.576 484.96 297.236 484.524 297.724C484.088 298.211 483.496 298.485 482.879 298.485Z" fill="white"/>
<path d="M532.893 312.774H430.296C429.679 312.774 429.087 312.5 428.651 312.013C428.215 311.526 427.97 310.865 427.97 310.176C427.97 309.487 428.215 308.826 428.651 308.339C429.087 307.852 429.679 307.578 430.296 307.578H532.893C533.51 307.578 534.102 307.852 534.538 308.339C534.974 308.826 535.22 309.487 535.22 310.176C535.22 310.865 534.974 311.526 534.538 312.013C534.102 312.5 533.51 312.774 532.893 312.774Z" fill="white"/>
<path d="M403.251 320.45C411.865 320.45 418.848 312.651 418.848 303.031C418.848 293.411 411.865 285.612 403.251 285.612C394.637 285.612 387.654 293.411 387.654 303.031C387.654 312.651 394.637 320.45 403.251 320.45Z" fill="white"/>
<path d="M493.075 396.457H316.585C313.722 396.453 310.978 395.181 308.953 392.92C306.929 390.66 305.79 387.594 305.787 384.397V357.832C305.79 354.635 306.929 351.57 308.953 349.309C310.978 347.048 313.722 345.776 316.585 345.772H493.075C495.938 345.776 498.683 347.048 500.707 349.309C502.731 351.57 503.87 354.635 503.873 357.832V384.397C503.87 387.594 502.731 390.66 500.707 392.92C498.683 395.181 495.938 396.453 493.075 396.457Z" fill="#E6E6E6"/>
<path d="M426.272 366.568H374.271C373.654 366.568 373.062 366.294 372.626 365.807C372.189 365.32 371.944 364.659 371.944 363.97C371.944 363.281 372.189 362.62 372.626 362.133C373.062 361.646 373.654 361.372 374.271 361.372H426.272C426.889 361.372 427.481 361.646 427.917 362.133C428.353 362.62 428.598 363.281 428.598 363.97C428.598 364.659 428.353 365.32 427.917 365.807C427.481 366.294 426.889 366.568 426.272 366.568Z" fill="white"/>
<path d="M476.287 380.857H373.69C373.073 380.857 372.481 380.583 372.045 380.096C371.608 379.609 371.363 378.948 371.363 378.259C371.363 377.57 371.608 376.909 372.045 376.422C372.481 375.935 373.073 375.661 373.69 375.661H476.287C476.904 375.661 477.495 375.935 477.932 376.422C478.368 376.909 478.613 377.57 478.613 378.259C478.613 378.948 478.368 379.609 477.932 380.096C477.495 380.583 476.904 380.857 476.287 380.857Z" fill="white"/>
<path d="M346.645 388.533C355.259 388.533 362.242 380.735 362.242 371.114C362.242 361.494 355.259 353.695 346.645 353.695C338.031 353.695 331.048 361.494 331.048 371.114C331.048 380.735 338.031 388.533 346.645 388.533Z" fill="white"/>
<path d="M232.5 345L230.5 350.5C230.333 350.667 229.8 351.1 229 351.5C228 352 229 353 228 353.5C227 354 227 353.5 226 354C225 354.5 224.5 354 222 354C219.5 354 220.5 354 217.5 353.5C216.5 353 216.5 353.5 215.5 353.5C214.5 353.5 214.5 353 212.5 351.5C212.1 350.3 212 349.667 212 349.5C212 350.5 211.7 348.5 210.5 348.5H209C208.5 348.333 207.2 348.1 206 348.5C204.8 348.9 205.5 349.333 206 349.5L204.5 351L203.5 353C203.167 353.5 202.4 354.7 202 355.5C201.6 356.3 201.167 356.833 201 357C200.333 357.667 198.7 359.1 197.5 359.5C196 360 196 360 195 360H192.5C191 360 191 359.5 190 358.5C189.2 357.7 189 356.167 189 355.5L187 353.5L186.5 350.5L185.5 349.5C185.667 348.333 186.1 345.8 186.5 345L188 342L189 340L191 336.5L192.5 334.5L194 332.5L196.5 331.5L199.5 329.5L202 328.5L206 327.5C207.5 327.333 210.8 327 212 327C213.2 327 217.833 328 220 328.5L226 331.5C226.8 331.9 228.333 332.333 229 332.5L231.5 335.5L232.5 338L234 340V341.5L233.5 343.5L232.5 345Z" fill="#2F2E41" stroke="#2F2E41"/>
</g>
<defs>
<clipPath id="clip0_166_228">
<rect width="625" height="580" fill="white"/>
</clipPath>
</defs>
</svg>
