<svg width="308" height="286" viewBox="0 0 308 286" fill="none" xmlns="http://www.w3.org/2000/svg">
<g clip-path="url(#clip0_189_105)">
<path d="M202.621 0H113.121C99.2013 0 87.917 12.6104 87.917 28.1662V256.717C87.917 272.272 99.2013 284.883 113.121 284.883H202.621C216.541 284.883 227.825 272.272 227.825 256.717V28.1662C227.825 12.6104 216.541 0 202.621 0Z" fill="#3F3D56"/>
<path d="M225.465 28.1681V256.717C225.458 263.485 223.049 269.974 218.766 274.76C214.483 279.546 208.677 282.238 202.62 282.246H113.122C107.065 282.238 101.259 279.546 96.9761 274.76C92.6934 269.974 90.2844 263.485 90.2773 256.717V28.1681C90.2844 21.3997 92.6934 14.9108 96.9761 10.1249C101.259 5.33895 107.065 2.64675 113.122 2.63892H124.825V7.15676C124.825 9.20207 125.552 11.1636 126.847 12.6098C128.141 14.0561 129.896 14.8686 131.726 14.8687H184.016C185.846 14.8686 187.601 14.0561 188.896 12.6098C190.19 11.1636 190.917 9.20207 190.917 7.15676V2.63892H202.62C208.677 2.64675 214.483 5.33895 218.766 10.1249C223.049 14.9108 225.458 21.3997 225.465 28.1681Z" fill="white"/>
<path d="M227.419 104.538C226.964 104.537 226.527 104.33 226.206 103.96C225.884 103.591 225.703 103.09 225.702 102.567V91.7159C225.702 91.1931 225.883 90.6918 226.205 90.3222C226.527 89.9525 226.964 89.7449 227.419 89.7449C227.874 89.7449 228.311 89.9525 228.633 90.3222C228.955 90.6918 229.135 91.1931 229.135 91.7159V102.567C229.135 103.09 228.954 103.591 228.632 103.96C228.31 104.33 227.874 104.537 227.419 104.538Z" fill="#3F3D56"/>
<path d="M227.912 80.3758C227.457 80.3752 227.021 80.1562 226.699 79.7668C226.377 79.3775 226.196 78.8496 226.195 78.299V50.4009C226.195 49.8501 226.376 49.3218 226.698 48.9324C227.02 48.5429 227.457 48.3241 227.912 48.3241C228.367 48.3241 228.804 48.5429 229.126 48.9324C229.448 49.3218 229.629 49.8501 229.629 50.4009V78.299C229.628 78.8496 229.447 79.3775 229.125 79.7668C228.803 80.1562 228.367 80.3752 227.912 80.3758Z" fill="#3F3D56"/>
<path d="M161.559 8.79864H148.255C147.97 8.79864 147.697 8.67231 147.496 8.44746C147.295 8.2226 147.182 7.91763 147.182 7.59964C147.182 7.28164 147.295 6.97667 147.496 6.75182C147.697 6.52696 147.97 6.40063 148.255 6.40063H161.559C161.843 6.40063 162.116 6.52696 162.317 6.75182C162.519 6.97667 162.632 7.28164 162.632 7.59964C162.632 7.91763 162.519 8.2226 162.317 8.44746C162.116 8.67231 161.843 8.79864 161.559 8.79864Z" fill="white"/>
<path d="M168.425 8.55891C168.899 8.55891 169.284 8.12946 169.284 7.5997C169.284 7.06995 168.899 6.6405 168.425 6.6405C167.951 6.6405 167.567 7.06995 167.567 7.5997C167.567 8.12946 167.951 8.55891 168.425 8.55891Z" fill="white"/>
<path d="M271.202 276.025C271.442 276.034 271.679 275.962 271.881 275.817C272.083 275.672 272.24 275.461 272.331 275.213C272.422 274.966 272.442 274.693 272.388 274.433C272.335 274.172 272.211 273.936 272.032 273.757C272.002 273.626 271.98 273.533 271.949 273.402C272.173 272.751 272.568 272.189 273.081 271.788C273.595 271.387 274.205 271.166 274.832 271.153C275.46 271.14 276.077 271.335 276.604 271.714C277.131 272.093 277.544 272.638 277.79 273.279C279.211 276.88 281.042 280.604 280.182 284.596C285.972 270.615 283.814 253.324 274.979 241.514C272.552 240.062 270.573 237.457 270.037 234.414C271.236 234.851 272.716 233.756 271.806 232.367C271.412 231.836 271.014 231.31 270.62 230.78C275.113 225.361 280.592 233.745 275.659 241.047C277.313 243.306 278.749 245.752 279.945 248.343C279.651 245.581 279.95 242.781 280.819 240.172C281.702 237.741 283.378 235.683 284.851 233.573C286.643 231.003 290.385 232.141 290.657 235.376C288.988 236.004 288.794 238.693 290.711 239.04C290.262 245.068 286.768 250.641 281.914 253.334C283.763 258.93 284.517 264.901 284.127 270.846C284.928 263.894 291.621 262.138 296.286 259.329C296.582 259.113 296.929 258.998 297.283 258.997C297.638 258.996 297.985 259.11 298.282 259.325C298.579 259.54 298.813 259.846 298.957 260.207C299.1 260.567 299.146 260.966 299.088 261.355C298.444 261.654 297.828 262.023 297.249 262.458C296.978 262.665 296.771 262.96 296.656 263.302C296.542 263.645 296.525 264.019 296.61 264.372C296.694 264.725 296.874 265.041 297.126 265.276C297.378 265.511 297.689 265.653 298.017 265.684C295.71 272.208 289.637 276.637 283.362 276.679C282.784 279.597 281.935 282.441 280.828 285.164L271.514 285.262C271.48 285.148 271.449 285.029 271.418 284.915C272.28 284.966 273.145 284.899 273.993 284.717C271.687 281.74 269.91 280.228 271.202 276.025L271.202 276.025Z" fill="#CD3DF1"/>
<path d="M27.9105 275.776C27.6701 275.786 27.4329 275.713 27.2309 275.568C27.029 275.423 26.8721 275.212 26.7814 274.965C26.6907 274.717 26.6707 274.445 26.7241 274.184C26.7775 273.924 26.9017 273.688 27.0798 273.508C27.1105 273.378 27.1325 273.284 27.1632 273.154C26.9389 272.503 26.5446 271.94 26.0309 271.54C25.5172 271.139 24.9075 270.918 24.2799 270.904C23.6524 270.891 23.0356 271.087 22.5086 271.465C21.9816 271.844 21.5684 272.389 21.322 273.031C19.901 276.632 18.0699 280.355 18.9305 284.347C13.1401 270.367 15.2982 253.075 24.1338 241.266C26.5605 239.813 28.5397 237.209 29.0752 234.166C27.8766 234.603 26.3962 233.507 27.3065 232.118C27.7005 231.588 28.0982 231.062 28.4921 230.531C23.9997 225.112 18.5199 233.496 23.4533 240.798C21.7996 243.058 20.363 245.503 19.167 248.095C19.4617 245.333 19.1622 242.532 18.293 239.924C17.4102 237.492 15.7342 235.435 14.2609 233.325C12.4695 230.754 8.72752 231.892 8.45579 235.127C10.1239 235.756 10.3183 238.444 8.401 238.792C8.85074 244.82 12.3443 250.392 17.1987 253.086C15.3495 258.682 14.595 264.652 14.9855 270.598C14.1841 263.645 7.49122 261.889 2.82674 259.08C2.53018 258.864 2.18351 258.749 1.82903 258.748C1.47455 258.748 1.12757 258.862 0.830423 259.077C0.533278 259.291 0.29881 259.598 0.155622 259.958C0.0124337 260.318 -0.0332865 260.717 0.0240404 261.106C0.668591 261.405 1.2848 261.775 1.86359 262.209C2.13477 262.416 2.34176 262.711 2.45617 263.054C2.57059 263.396 2.58684 263.77 2.5027 264.123C2.41855 264.477 2.23813 264.792 1.98616 265.027C1.73419 265.262 1.42301 265.405 1.09527 265.435C3.4027 271.96 9.47491 276.388 15.75 276.43C16.3281 279.349 17.1775 282.192 18.2846 284.915L27.5979 285.014C27.6323 284.899 27.6633 284.781 27.6944 284.666C26.8318 284.717 25.9669 284.651 25.1188 284.468C27.4253 281.492 29.2022 279.979 27.9108 275.776L27.9105 275.776Z" fill="#CD3DF1"/>
<path d="M119.712 13.9435H108.124C107.555 13.9435 107.009 13.6908 106.607 13.2411C106.205 12.7914 105.979 12.1815 105.979 11.5455C105.979 10.9095 106.205 10.2995 106.607 9.84982C107.009 9.40011 107.555 9.14746 108.124 9.14746H119.712C120.281 9.14746 120.827 9.40011 121.229 9.84982C121.632 10.2995 121.858 10.9095 121.858 11.5455C121.858 12.1815 121.632 12.7914 121.229 13.2411C120.827 13.6908 120.281 13.9435 119.712 13.9435Z" fill="#E6E6E6"/>
<path d="M195.674 13.7036C196.741 13.7036 197.606 12.7374 197.606 11.5454C197.606 10.3535 196.741 9.38721 195.674 9.38721C194.608 9.38721 193.743 10.3535 193.743 11.5454C193.743 12.7374 194.608 13.7036 195.674 13.7036Z" fill="#E6E6E6"/>
<path d="M201.683 13.7036C202.749 13.7036 203.614 12.7374 203.614 11.5454C203.614 10.3535 202.749 9.38721 201.683 9.38721C200.616 9.38721 199.751 10.3535 199.751 11.5454C199.751 12.7374 200.616 13.7036 201.683 13.7036Z" fill="#E6E6E6"/>
<path d="M207.691 13.7036C208.758 13.7036 209.622 12.7374 209.622 11.5454C209.622 10.3535 208.758 9.38721 207.691 9.38721C206.624 9.38721 205.76 10.3535 205.76 11.5454C205.76 12.7374 206.624 13.7036 207.691 13.7036Z" fill="#E6E6E6"/>
<path d="M194.324 47.46H121.495C120.084 47.4621 118.731 48.0894 117.734 49.2042C116.736 50.319 116.175 51.8304 116.173 53.407V106.312C116.175 107.888 116.736 109.4 117.734 110.515C118.731 111.629 120.084 112.257 121.495 112.259H194.324C195.735 112.257 197.088 111.63 198.086 110.515C199.083 109.4 199.645 107.889 199.646 106.312V53.407C199.645 51.8302 199.083 50.3183 198.086 49.2033C197.088 48.0883 195.735 47.4613 194.324 47.46Z" fill="#F2F2F2"/>
<path d="M171.524 70.0451C164.942 83.0493 157.679 95.6079 149.773 107.655H138.352C145.832 97.4708 153.319 87.2862 160.811 77.1017C162.96 74.1692 165.292 71.0971 168.516 69.9055L171.524 70.0451Z" fill="#3F3D56"/>
<path d="M156.346 67.9598C155.154 69.3469 154.013 70.7899 152.939 72.2888C150.573 75.4726 148.24 78.6843 145.899 81.8868C144.441 83.879 142.984 85.8712 141.542 87.8634C141.085 87.5349 140.65 87.1677 140.243 86.7649C137.941 84.5322 136.513 81.3808 136.266 77.9859C136.018 74.591 136.97 71.2227 138.918 68.6028C140.866 65.9829 143.654 64.3198 146.686 63.9699C149.718 63.6201 152.752 64.6112 155.138 66.731C155.568 67.1058 155.972 67.5166 156.346 67.9598Z" fill="#CD3DF1"/>
<path d="M199.646 66.4473V68.3801L198.873 68.0636L188.002 63.6225C184.462 62.1789 180.93 60.529 177.273 59.4883C174.092 58.4713 170.714 58.5197 167.557 59.6274C164.743 60.7908 162.168 62.577 159.986 64.879C159.021 65.8766 158.085 66.8981 157.18 67.9581C156.884 68.3082 156.587 68.6583 156.296 69.0084C155.42 70.0731 154.575 71.1618 153.772 72.2888C151.407 75.4734 149.073 78.6867 146.734 81.8857C145.275 83.8808 143.815 85.8711 142.373 87.8615C137.558 94.4464 132.772 101.044 128.014 107.655C127.373 107.647 126.735 107.556 126.112 107.386C130.966 100.648 135.843 93.9268 140.743 87.2236C140.854 87.0702 140.966 86.9167 141.077 86.7632C141.652 85.9623 142.24 85.1565 142.824 84.3556C145.266 81.0128 147.709 77.6732 150.154 74.3367C151.931 71.91 153.695 69.4736 155.609 67.1715C155.725 67.0228 155.845 66.879 155.969 66.7303C156.154 66.5097 156.339 66.2938 156.527 66.0684C160.686 61.2676 165.875 57.0232 172.089 56.908C175.745 56.8457 179.277 58.1406 182.676 59.5075C186.337 60.9895 189.985 62.4954 193.642 63.9918L199.646 66.4473Z" fill="#3F3D56"/>
<path d="M201.358 229.066H114.384C112.973 229.064 111.62 228.437 110.623 227.322C109.625 226.208 109.064 224.696 109.062 223.119V210.02C109.064 208.444 109.625 206.932 110.623 205.817C111.62 204.703 112.973 204.075 114.384 204.074H201.358C202.769 204.075 204.121 204.703 205.119 205.817C206.117 206.932 206.678 208.444 206.679 210.02V223.119C206.678 224.696 206.117 226.208 205.119 227.322C204.121 228.437 202.769 229.064 201.358 229.066Z" fill="#F2F2F2"/>
<path d="M201.358 161.922H114.384C112.973 161.92 111.62 161.293 110.623 160.178C109.625 159.063 109.064 157.552 109.062 155.975V142.876C109.064 141.299 109.625 139.788 110.623 138.673C111.62 137.558 112.973 136.931 114.384 136.929H201.358C202.769 136.931 204.121 137.558 205.119 138.673C206.117 139.788 206.678 141.299 206.679 142.876V155.975C206.678 157.552 206.117 159.063 205.119 160.178C204.121 161.293 202.769 161.92 201.358 161.922Z" fill="#F2F2F2"/>
<path d="M201.358 195.494H114.384C112.973 195.492 111.62 194.865 110.623 193.75C109.625 192.635 109.064 191.124 109.062 189.547V176.448C109.064 174.872 109.625 173.36 110.623 172.245C111.62 171.13 112.973 170.503 114.384 170.501H201.358C202.769 170.503 204.121 171.13 205.119 172.245C206.117 173.36 206.678 174.872 206.679 176.448V189.547C206.678 191.124 206.117 192.635 205.119 193.75C204.121 194.865 202.769 195.492 201.358 195.494Z" fill="#F2F2F2"/>
<path d="M168.438 214.328H142.811C142.507 214.328 142.216 214.193 142.001 213.953C141.786 213.712 141.665 213.387 141.665 213.047C141.665 212.707 141.786 212.381 142.001 212.141C142.216 211.901 142.507 211.766 142.811 211.766H168.438C168.742 211.766 169.033 211.901 169.248 212.141C169.463 212.381 169.584 212.707 169.584 213.047C169.584 213.387 169.463 213.712 169.248 213.953C169.033 214.193 168.742 214.328 168.438 214.328Z" fill="white"/>
<path d="M193.085 221.374H142.525C142.221 221.374 141.929 221.239 141.714 220.999C141.499 220.758 141.378 220.433 141.378 220.093C141.378 219.753 141.499 219.427 141.714 219.187C141.929 218.947 142.221 218.812 142.525 218.812H193.085C193.389 218.812 193.68 218.947 193.895 219.187C194.11 219.427 194.231 219.753 194.231 220.093C194.231 220.433 194.11 220.758 193.895 220.999C193.68 221.239 193.389 221.374 193.085 221.374Z" fill="white"/>
<path d="M129.197 225.159C133.442 225.159 136.884 221.314 136.884 216.57C136.884 211.826 133.442 207.98 129.197 207.98C124.952 207.98 121.511 211.826 121.511 216.57C121.511 221.314 124.952 225.159 129.197 225.159Z" fill="white"/>
<path d="M127.484 228.172C126.7 227.762 125.804 227.711 124.986 228.029C124.168 228.346 123.494 229.008 123.106 229.873C123.029 230.05 122.966 230.234 122.917 230.423L111.343 231.196L109.627 237.897L125.38 234.923C126.097 235.09 126.843 234.988 127.502 234.631C128.161 234.275 128.695 233.685 129.023 232.954C129.205 232.535 129.313 232.081 129.338 231.616C129.364 231.152 129.307 230.686 129.171 230.246C129.036 229.806 128.824 229.4 128.548 229.051C128.272 228.702 127.937 228.418 127.563 228.214C127.537 228.199 127.511 228.185 127.484 228.172Z" fill="#FFB6B6"/>
<path d="M101.937 195.118C101.174 194.769 100.353 194.608 99.5296 194.646C98.7062 194.683 97.8997 194.918 97.1649 195.335C96.4301 195.752 95.7843 196.341 95.2714 197.062C94.7585 197.783 94.3904 198.618 94.1924 199.512L91.0103 213.873L91.6088 238.996C91.6088 238.996 108.218 242.558 111.007 240.269C113.795 237.979 113.533 236.275 113.795 237.979C114.057 239.683 115.254 240.399 115.27 239.721C115.287 239.043 115.422 239.158 116.117 238.954C116.812 238.75 119.879 237.487 119.879 237.487L120.016 230.324C120.016 230.324 114.946 228.176 113.716 228.817C112.486 229.458 113.978 230.521 112.486 229.458C110.994 228.394 110.831 225.038 110.576 228.063C110.321 231.088 109.574 231.651 108.456 230.306C107.337 228.961 102.155 229.82 102.155 229.82L105.453 201.893C105.619 200.488 105.364 199.062 104.728 197.836C104.091 196.61 103.11 195.655 101.937 195.118Z" fill="#6C63FF"/>
<path d="M213.792 269.621L213.967 264.331L195.791 261.061L195.533 268.868L213.792 269.621Z" fill="#FFB6B6"/>
<path d="M111.497 281.752L169.066 274.271C169.066 274.271 193.927 275.876 199.76 271.635L205.911 270.768L206.244 260.671C206.244 260.671 202.483 260.702 200.32 259.576C198.158 258.45 199.661 257.072 197.599 258.427C195.537 259.781 195.755 259.944 194.161 259.322C192.567 258.699 119.464 255.36 119.464 255.36L111.497 281.752Z" fill="#2F2E41"/>
<path d="M187.358 277.371L190.706 273.625L179.371 257.413L174.431 262.941L187.358 277.371Z" fill="#FFB6B6"/>
<path d="M184.061 277.124V275.891L184.554 274.659L185.047 273.919C185.375 273.755 186.082 273.377 186.279 273.179C186.476 272.982 186.689 272.604 186.771 272.44L187.511 271.453V270.467L188.25 269.728L188.496 268.002L189.235 269.481V270.467L189.975 271.453L190.467 272.44H192.192L193.178 271.947L194.903 271.453L196.627 270.714L198.106 270.467L198.599 269.974L199.831 269.481L201.063 268.741H202.048L202.541 269.481L203.034 270.714L202.541 271.947L202.048 272.933L201.555 273.919L201.063 274.659L200.57 275.152L199.831 275.891L199.091 276.384L198.106 277.124L197.613 277.864H196.627L195.395 278.357L194.903 279.59L194.41 280.576V281.069L193.917 281.809L193.178 282.548L192.192 283.041H190.96H189.975H189.235L188.496 282.548L187.511 281.809L186.771 281.069L186.032 280.083L185.539 279.59L185.047 279.097L184.554 278.357L184.061 277.124Z" fill="#450584" stroke="#450584"/>
<path d="M211.211 271.263L210.419 270.318L210.004 269.057L209.907 268.174C210.053 267.836 210.351 267.092 210.375 266.815C210.4 266.537 210.32 266.11 210.278 265.931L210.21 264.7L209.577 263.945L209.668 262.903L208.748 261.422L210.265 262.08L210.898 262.835L212.098 263.115L213.109 263.554L214.43 262.444L214.869 261.433L215.873 259.946L216.719 258.27L217.693 257.13L217.754 256.435L218.381 255.265L218.85 253.906L219.605 253.272L220.457 253.522L221.627 254.149L222.041 255.411L222.297 256.483L222.553 257.555L222.651 258.439L222.59 259.134L222.499 260.176L222.25 261.029L221.97 262.229L222.067 263.113L221.312 263.747L220.685 264.917L221.1 266.178L221.356 267.251L221.673 267.629L221.77 268.512L221.679 269.554L221.241 270.566L220.297 271.358L219.542 271.992L218.976 272.468L218.093 272.565L216.863 272.633L215.821 272.541L214.621 272.261L213.927 272.201L213.233 272.14L212.38 271.89L211.211 271.263Z" fill="#450584" stroke="#450584"/>
<path d="M88.7837 246.518L89.356 261.386C90.0298 278.888 107.278 289.481 120.652 280.343C120.899 280.174 121.146 280 121.394 279.819C121.394 279.819 126.464 278.298 126.311 275.888C126.157 273.478 127.395 272.305 128.491 272.962C129.588 273.62 143.94 250.857 143.94 250.857C143.94 250.857 173.759 267.48 180.337 271.393L187.278 269.279C187.278 269.279 189.891 270.658 188.95 268.664C188.009 266.67 187.84 267.625 187.551 265.452C187.262 263.28 186.522 260.586 186.074 260.699C185.625 260.813 149.184 232.309 149.184 232.309C149.184 232.309 143.247 225.595 135.883 230.028C135.729 230.679 135.861 230.702 135.861 230.702L111.534 252.854L108.096 245.559L88.7837 246.518Z" fill="#2F2E41"/>
<path d="M105.134 191.89L94.704 186.427L91.5814 192.5C91.5814 192.5 83.1947 205.874 83.073 215.523C82.9513 225.171 84.4397 228.041 84.4397 228.041C84.4397 228.041 80.8237 231.062 82.6317 232.908C84.4397 234.755 88.4424 235.552 85.3682 236.352C82.2939 237.153 83.073 245.258 86.5063 246.697C89.9397 248.136 108.378 248.123 108.378 248.123C108.213 247.495 108.201 246.828 108.343 246.193C108.486 245.557 108.778 244.976 109.189 244.509C110.619 242.908 111.906 244.057 110.619 241.564C109.331 239.071 107.186 240.51 108.902 237.153C110.619 233.796 110.618 232.793 110.618 232.793C110.618 232.793 114.118 225.35 108.847 217.275C108.525 216.783 108.796 216.764 108.796 216.764L104.539 200.824L105.134 191.89Z" fill="#450584"/>
<path d="M103.65 185.36C109.101 185.36 113.52 180.422 113.52 174.329C113.52 168.237 109.101 163.299 103.65 163.299C98.1981 163.299 93.7788 168.237 93.7788 174.329C93.7788 180.422 98.1981 185.36 103.65 185.36Z" fill="#FFB6B6"/>
<path d="M150.5 239.463C150.476 239.431 150.449 239.403 150.419 239.38C150.345 239.284 150.255 239.205 150.154 239.148L149.432 238.716L144.637 232.767C144.359 232.605 144.036 232.571 143.736 232.671L143.724 232.675L141.67 233.385L139.903 233.997L137.435 234.852L120.627 240.669L109.578 244.492C109.279 244.597 109.029 244.83 108.883 245.139C108.736 245.448 108.703 245.81 108.793 246.145C108.845 246.33 108.93 246.501 109.045 246.646L109.396 247.083L110.134 248.002L111.843 251.958L112.317 252.55C112.468 252.738 112.664 252.874 112.881 252.942C113.099 253.011 113.33 253.008 113.547 252.935L149.946 241.624C150.135 241.556 150.306 241.436 150.444 241.277C150.583 241.117 150.683 240.922 150.738 240.708C150.793 240.495 150.8 240.269 150.758 240.052C150.716 239.835 150.628 239.632 150.5 239.463Z" fill="#CCCCCC"/>
<path d="M148.339 180.613L147.634 180.741C147.441 180.776 147.268 180.896 147.153 181.074L146.843 181.559L144.042 189.387C143.927 189.566 143.882 189.788 143.914 190.005L144.242 192.235L143.002 232.045C143.033 232.251 143.132 232.436 143.279 232.565L148.718 240.695L148.845 240.808L149.119 241.047C149.26 241.169 149.434 241.231 149.611 241.222L150.073 241.198C150.178 241.192 150.281 241.162 150.375 241.108C150.468 241.055 150.551 240.98 150.617 240.888C150.683 240.798 150.731 240.692 150.758 240.579C150.784 240.465 150.789 240.347 150.771 240.231L149.193 181.294C149.161 181.078 149.054 180.884 148.894 180.756C148.734 180.628 148.536 180.577 148.342 180.612L148.339 180.613Z" fill="#CCCCCC"/>
<path d="M147.158 183.706L144.677 192.154L143.717 225.895L147.579 229.732L147.158 183.706Z" fill="#6C63FF"/>
<path d="M127.969 235.175C127.184 234.766 126.288 234.714 125.47 235.032C124.652 235.35 123.978 236.012 123.59 236.877C123.514 237.054 123.451 237.238 123.401 237.427L111.827 238.2L110.112 244.901L125.865 241.926C126.581 242.094 127.327 241.991 127.986 241.635C128.645 241.279 129.18 240.689 129.507 239.957C129.876 239.112 129.93 238.138 129.656 237.249C129.382 236.36 128.804 235.629 128.048 235.217C128.021 235.203 127.995 235.189 127.969 235.175Z" fill="#FFB6B6"/>
<path d="M102.421 202.122C101.658 201.773 100.837 201.612 100.014 201.649C99.1906 201.687 98.3841 201.922 97.6493 202.339C96.9145 202.756 96.2687 203.345 95.7558 204.065C95.2428 204.786 94.8748 205.622 94.6767 206.516L91.4946 220.876L92.0932 246C92.0932 246 108.703 249.561 111.491 247.272C114.279 244.983 114.018 243.278 114.28 244.983C114.541 246.687 115.738 247.402 115.755 246.724C115.771 246.046 115.907 246.162 116.602 245.958C117.296 245.753 120.363 244.49 120.363 244.49L120.5 237.327C120.5 237.327 115.431 235.179 114.201 235.82C112.97 236.461 114.462 237.525 112.97 236.461C111.479 235.398 111.316 232.041 111.061 235.066C110.805 238.091 110.059 238.654 108.94 237.309C107.822 235.964 102.64 236.823 102.64 236.823L105.937 208.896C106.103 207.492 105.848 206.065 105.212 204.839C104.576 203.614 103.594 202.658 102.421 202.122Z" fill="#450584"/>
<path d="M2.26042e-06 285.429C-0.000197761 285.504 0.0128788 285.579 0.0384751 285.648C0.0640713 285.717 0.101686 285.78 0.149152 285.833C0.196619 285.886 0.252998 285.928 0.315054 285.957C0.377109 285.986 0.443612 286 0.510738 286H307.489C307.625 286 307.755 285.94 307.85 285.833C307.946 285.726 308 285.581 308 285.429C308 285.278 307.946 285.133 307.85 285.026C307.755 284.919 307.625 284.859 307.489 284.859H0.510712C0.443589 284.858 0.377092 284.873 0.31504 284.902C0.252989 284.93 0.196609 284.972 0.149146 285.025C0.101683 285.078 0.0640705 285.141 0.0384751 285.211C0.0128796 285.28 -0.000195466 285.354 2.26042e-06 285.429Z" fill="#CCCCCC"/>
<path d="M270.883 161.922H183.909C182.498 161.92 181.146 161.293 180.148 160.178C179.151 159.063 178.59 157.552 178.588 155.975V142.876C178.59 141.299 179.151 139.788 180.148 138.673C181.146 137.558 182.498 136.931 183.909 136.929H270.883C272.294 136.931 273.647 137.558 274.644 138.673C275.642 139.788 276.203 141.299 276.205 142.876V155.975C276.203 157.552 275.642 159.063 274.644 160.178C273.647 161.293 272.294 161.92 270.883 161.922Z" fill="#E6E6E6"/>
<path d="M237.963 147.184H212.336C212.032 147.184 211.741 147.049 211.526 146.809C211.311 146.568 211.19 146.242 211.19 145.903C211.19 145.563 211.311 145.237 211.526 144.997C211.741 144.757 212.032 144.622 212.336 144.622H237.963C238.267 144.622 238.558 144.757 238.773 144.997C238.988 145.237 239.109 145.563 239.109 145.903C239.109 146.242 238.988 146.568 238.773 146.809C238.558 147.049 238.267 147.184 237.963 147.184Z" fill="white"/>
<path d="M262.61 154.23H212.05C211.746 154.23 211.454 154.095 211.239 153.855C211.024 153.614 210.903 153.289 210.903 152.949C210.903 152.609 211.024 152.283 211.239 152.043C211.454 151.803 211.746 151.668 212.05 151.668H262.61C262.914 151.668 263.205 151.803 263.42 152.043C263.635 152.283 263.756 152.609 263.756 152.949C263.756 153.289 263.635 153.614 263.42 153.855C263.205 154.095 262.914 154.23 262.61 154.23Z" fill="white"/>
<path d="M198.722 158.015C202.967 158.015 206.408 154.169 206.408 149.426C206.408 144.682 202.967 140.836 198.722 140.836C194.477 140.836 191.036 144.682 191.036 149.426C191.036 154.169 194.477 158.015 198.722 158.015Z" fill="white"/>
<path d="M242.987 195.494H156.013C154.602 195.492 153.25 194.865 152.252 193.75C151.255 192.635 150.694 191.124 150.692 189.547V176.448C150.694 174.872 151.255 173.36 152.252 172.245C153.25 171.13 154.602 170.503 156.013 170.501H242.987C244.398 170.503 245.751 171.13 246.748 172.245C247.746 173.36 248.307 174.872 248.309 176.448V189.547C248.307 191.124 247.746 192.635 246.748 193.75C245.751 194.865 244.398 195.492 242.987 195.494Z" fill="#E6E6E6"/>
<path d="M210.067 180.756H184.441C184.137 180.756 183.845 180.621 183.63 180.381C183.415 180.14 183.294 179.814 183.294 179.475C183.294 179.135 183.415 178.809 183.63 178.569C183.845 178.329 184.137 178.194 184.441 178.194H210.067C210.371 178.194 210.663 178.329 210.878 178.569C211.093 178.809 211.213 179.135 211.213 179.475C211.213 179.814 211.093 180.14 210.878 180.381C210.663 180.621 210.371 180.756 210.067 180.756Z" fill="white"/>
<path d="M234.714 187.802H184.154C183.85 187.802 183.559 187.667 183.344 187.427C183.129 187.186 183.008 186.861 183.008 186.521C183.008 186.181 183.129 185.855 183.344 185.615C183.559 185.375 183.85 185.24 184.154 185.24H234.714C235.018 185.24 235.31 185.375 235.525 185.615C235.74 185.855 235.861 186.181 235.861 186.521C235.861 186.861 235.74 187.186 235.525 187.427C235.31 187.667 235.018 187.802 234.714 187.802Z" fill="white"/>
<path d="M170.826 191.587C175.071 191.587 178.512 187.742 178.512 182.998C178.512 178.254 175.071 174.408 170.826 174.408C166.581 174.408 163.14 178.254 163.14 182.998C163.14 187.742 166.581 191.587 170.826 191.587Z" fill="white"/>
<path d="M114.576 170.121L113.591 172.833C113.508 172.915 113.246 173.129 112.851 173.326C112.359 173.572 112.851 174.066 112.359 174.312C111.866 174.559 111.866 174.312 111.373 174.559C110.88 174.805 110.634 174.559 109.402 174.559C108.17 174.559 108.663 174.559 107.184 174.312C106.691 174.066 106.691 174.312 106.199 174.312C105.706 174.312 105.706 174.066 104.72 173.326C104.523 172.734 104.474 172.422 104.474 172.34C104.474 172.833 104.326 171.847 103.735 171.847H102.995C102.749 171.764 102.108 171.649 101.517 171.847C100.926 172.044 101.271 172.258 101.517 172.34L100.778 173.079L100.285 174.066C100.121 174.312 99.7429 174.904 99.5458 175.298C99.3486 175.693 99.1351 175.956 99.053 176.038C98.7244 176.367 97.9195 177.073 97.3282 177.271C96.589 177.517 96.589 177.517 96.0962 177.517H94.8642C94.125 177.517 94.125 177.271 93.6322 176.778C93.2379 176.383 93.1394 175.627 93.1394 175.298L92.1538 174.312L91.9074 172.833L91.4146 172.34C91.4967 171.764 91.7102 170.515 91.9074 170.121L92.6466 168.641L93.1394 167.655L94.125 165.929L94.8642 164.943L95.6034 163.957L96.8354 163.464L98.3138 162.478L99.5458 161.985L101.517 161.491C102.256 161.409 103.882 161.245 104.474 161.245C105.065 161.245 107.348 161.738 108.416 161.985L111.373 163.464C111.767 163.661 112.523 163.875 112.851 163.957L114.083 165.436L114.576 166.669L115.315 167.655V168.395L115.069 169.381L114.576 170.121Z" fill="#2F2E41" stroke="#2F2E41"/>
</g>
<defs>
<clipPath id="clip0_189_105">
<rect width="308" height="286" fill="white"/>
</clipPath>
</defs>
</svg>
